<?xml version="1.0" standalone="no"?>
<!DOCTYPE svg PUBLIC "-//W3C//DTD SVG 20010904//EN"
 "http://www.w3.org/TR/2001/REC-SVG-20010904/DTD/svg10.dtd">
<svg version="1.0" xmlns="http://www.w3.org/2000/svg"
 width="152.000000pt" height="152.000000pt" viewBox="0 0 152.000000 152.000000"
 preserveAspectRatio="xMidYMid meet">
<metadata>
Created by potrace 1.14, written by Peter Selinger 2001-2017
</metadata>
<g transform="translate(0.000000,152.000000) scale(0.100000,-0.100000)"
fill="#000000" stroke="none">
<path d="M401 997 c-13 -6 -34 -25 -45 -40 -19 -25 -21 -44 -24 -180 -2 -130
0 -157 15 -187 46 -90 205 -94 246 -7 9 19 17 53 17 76 l0 41 -50 0 -50 0 0
-43 c0 -46 -13 -67 -42 -67 -30 0 -38 35 -38 175 0 140 8 175 38 175 29 0 42
-21 42 -67 l0 -43 50 0 50 0 0 41 c0 58 -27 109 -66 125 -41 17 -111 18 -143
1z"/>
<path d="M691 782 c-25 -119 -47 -225 -49 -235 -4 -16 1 -18 44 -15 l49 3 9
48 c8 47 9 47 47 47 41 0 44 -4 51 -70 3 -22 8 -25 52 -28 46 -3 48 -2 43 20
-3 13 -25 119 -48 236 l-42 212 -56 0 -56 0 -44 -218z m128 -79 c1 -8 -11 -13
-30 -13 -24 0 -29 4 -25 18 2 9 8 42 11 72 4 30 10 60 13 65 5 8 29 -102 31
-142z"/>
<path d="M930 965 c0 -33 2 -35 35 -35 l35 0 0 -200 0 -200 55 0 55 0 0 200 0
200 35 0 c33 0 35 2 35 35 l0 35 -125 0 -125 0 0 -35z"/>
</g>
</svg>
